<?xml version="1.0" encoding="UTF-8" standalone="yes"?>
<svg width="500" zoomAndPan="disable" viewBox="0 0 375 375" height="500" preserveAspectRatio="xMidYMid meet" version="1.2" baseProfile="tiny-ps" xmlns="http://www.w3.org/2000/svg">
  <title>bimi-svg-tiny-12-ps</title>
  <defs/>
  <rect x="-37.5" width="450" fill="#ffffff" y="-37.5" height="450" fill-opacity="1"/>
  <rect x="-37.5" width="450" fill="#ffffff" y="-37.5" height="450" fill-opacity="1"/>
  <g>
    <path fill="#1e842e" d="M 227.710938 180.0625 L 253.074219 127.832031 L 247.046875 125.125 L 264.832031 114.519531 L 270.679688 134.140625 L 264.75 131.804688 L 235.605469 191.007812 L 225.457031 186.636719 Z M 227.710938 180.0625 " fill-opacity="1" fill-rule="nonzero"/>
  </g>
  <g>
    <path fill="#1e842e" d="M 142.113281 184.019531 L 104.320312 260.386719 L 118.191406 260.464844 L 156.238281 184.019531 Z M 142.113281 184.019531 " fill-opacity="1" fill-rule="nonzero"/>
  </g>
  <path fill="#1e842e" d="M 206.097656 160.398438 L 221.5 191.039062 L 235.59375 191.039062 L 214.925781 149.320312 Z M 206.097656 160.398438 " fill-opacity="1" fill-rule="nonzero"/>
  <path fill="#1e842e" d="M 200.800781 149.320312 L 163.003906 225.691406 L 176.878906 225.769531 L 214.925781 149.320312 Z M 200.800781 149.320312 " fill-opacity="1" fill-rule="nonzero"/>
  <path fill="#1e842e" d="M 147.402344 195.097656 L 162.808594 225.734375 L 176.902344 225.734375 L 156.230469 184.019531 Z M 147.402344 195.097656 " fill-opacity="1" fill-rule="nonzero"/>
</svg>
